<?xml version="1.0" encoding="UTF-8" standalone="no" ?>
<!DOCTYPE svg PUBLIC "-//W3C//DTD SVG 1.1//EN" "http://www.w3.org/Graphics/SVG/1.1/DTD/svg11.dtd">
<svg xmlns="http://www.w3.org/2000/svg" xmlns:xlink="http://www.w3.org/1999/xlink" version="1.1" width="410" height="410" viewBox="0 0 410 410" xml:space="preserve">
<desc>Created with Fabric.js 5.3.0</desc>
<defs>
</defs>
<g transform="matrix(0.174725329 0 0 0.232875 318.9059037527 254.8809252951)" id="Z-RHIFdANh_P1X5aynMOF"  >
<path style="stroke: none; stroke-width: 1; stroke-dasharray: none; stroke-linecap: butt; stroke-dashoffset: 0; stroke-linejoin: miter; stroke-miterlimit: 4; fill: rgb(255,255,255); fill-rule: nonzero; opacity: 1;"  transform=" translate(-40, -40)" d="M 0 0 L 80 80 L 0 80 L 0 0 z" stroke-linecap="round" />
</g>
<g transform="matrix(0.9945704588 0 0 0.2736992685 204.8190911076 80.3764791601)" id="-uPz27xq_EK2XnDipbuo2"  >
<path style="stroke: rgb(137,49,34); stroke-width: 0; stroke-dasharray: none; stroke-linecap: butt; stroke-dashoffset: 0; stroke-linejoin: miter; stroke-miterlimit: 4; fill: rgb(255,255,255); fill-rule: nonzero; opacity: 1;"  transform=" translate(0, 0)" d="M -58.13953 -58.13953 L 58.139540000000004 -58.13953 L 58.139540000000004 58.139540000000004 L -58.13953 58.139540000000004 z" stroke-linecap="round" />
</g>
<g transform="matrix(1 0 0 1 205 205.7429844444)" id="2y_f0HYngEKdT_gClQ7Uj"  >
<path style="stroke: rgb(175,250,199); stroke-width: 0; stroke-dasharray: none; stroke-linecap: butt; stroke-dashoffset: 0; stroke-linejoin: miter; stroke-miterlimit: 4; fill: rgb(255,255,255); fill-rule: nonzero; opacity: 1;"  transform=" translate(0, 0)" d="M 122.10378 -78.34425 L 122.10378 -45.2408 L 38.77244 -45.2408 L 38.77244 -5.344250000000002 L 5.461760000000005 -5.344250000000002 L 5.461760000000005 -78.34425 L 38.77244 -78.34425 L 38.77244 -78.34425 z M 187.32446 -2.88524 L 187.32446 -2.88524 L 187.32446 -2.88524 L 187.32446 -2.88524 L 122.87476999999998 58.35474 L 122.67770999999999 58.36574 L 122.67770999999999 58.45969 L 120.99441999999999 58.45969 L 120.98228999999999 58.460370000000005 L 120.98195 58.45969 L 109.35437999999999 58.45969 L 109.35437999999999 58.460370000000005 L 38.77244999999999 58.460370000000005 L 38.77244999999999 172.10266000000001 L 38.77243999999999 172.10266000000001 L 38.77243999999999 173.02603000000002 L 5.4486499999999864 203.70146000000003 L 5.4486499999999864 170.59641000000002 L 5.461749999999986 170.5963 L 5.461749999999986 26.86223000000001 L 38.772449999999985 26.86223000000001 L 38.772449999999985 26.86223000000001 L 108.13422999999997 26.86223000000001 L 108.13422999999997 26.86223000000001 L 109.09002999999997 26.86223000000001 L 154.45210999999998 -16.336339999999986 L 154.45210999999998 -142.68623 L 187.32444999999998 -115.51642 L 187.32444999999998 -2.885239999999996 z M 72.32889 90.60625 L 113.64766 90.60625 L 72.32889 127.81241 z M -89.37653 -108.94091 L -121.61812 -141.1825 L -89.37653 -141.1825 z M -25.66676 69.05694 L -57.98292000000001 99.65729999999999 L -57.98292000000001 67.90876999999999 L -58.00477000000001 67.90876999999999 L -58.00477000000001 -125.36650000000002 L -25.66676000000001 -125.36650000000002 z M -187.32446 -203.70146 L 88.57123000000001 -203.70146 L 88.57123000000001 -172.31426 L 88.57122000000001 -172.31426 L 88.57122000000001 -109.45374999999999 L 55.57007000000001 -109.45374999999999 L 55.57007000000001 -172.31426 L -187.32446 -172.31426 z" stroke-linecap="round" />
</g>
</svg>